<svg width="20" height="26" viewBox="0 0 20 26" fill="none" xmlns="http://www.w3.org/2000/svg">
<path d="M9.5377 19.0047L9.00911 18.2619L10.0002 17.4881L11.1565 18.1071L10.5051 19.1752L11.1565 20.2738L10.0002 21.6666L9.00911 20.119L9.5377 19.0047Z" fill="#01D689"/>
<path d="M3.2277 9.13092C3.09555 8.14044 4.38398 7.89282 5.04471 7.89282V10.2143C4.49413 10.2658 3.35985 10.1214 3.2277 9.13092Z" fill="#01D689"/>
<path d="M14.7904 10.2143V7.89282C15.3961 7.94441 16.6075 8.2333 16.6075 8.97616C16.6075 9.71901 15.3961 10.1111 14.7904 10.2143Z" fill="#01D689"/>
<path d="M6.69647 10.2143C5.63929 10.0904 5.81549 8.92457 6.03573 8.35711C9.50458 7.11901 9.3394 8.97616 9.17421 9.74997C9.00903 10.5238 8.01793 10.369 6.69647 10.2143Z" fill="#01D689"/>
<path d="M11.4868 10.369C10.5618 10.369 10.5507 9.02774 10.6609 8.35711C13.469 7.11901 13.7993 8.82139 13.7993 9.5952C13.7993 10.369 12.6431 10.369 11.4868 10.369Z" fill="#01D689"/>
<path d="M19.973 24.2014C18.7367 18.3849 18.7901 18.6326 18.784 18.6087C18.6219 17.8734 18.1661 17.263 17.4271 16.8806C17.0815 16.7013 16.8822 16.6733 16.7079 16.62L13.6705 15.6316L12.6582 14.981V14.2432C14.1385 13.4193 15.0809 12.0003 15.2532 10.4648C16.4903 10.5185 17.3524 9.41076 16.8338 8.44094V5.33618C16.8338 3.09095 15.5305 2.30983 15.1323 2.12367C13.1839 -0.0555063 9.5457 -0.614404 6.78764 0.711543L6.78233 0.714031C6.73501 0.740082 6.16661 0.986472 5.46666 1.53481C5.29685 1.67242 5.27826 1.91292 5.42509 2.07202C5.57219 2.23132 5.82894 2.24833 5.99848 2.11097C8.69963 -0.0140182 12.7088 0.532032 14.5623 2.67322C14.6079 2.72588 14.6635 2.76473 14.7313 2.78849C14.784 2.8083 16.0208 3.296 16.0208 5.33618V7.73986C15.7953 7.65038 15.548 7.60453 15.2845 7.61143V6.36572C15.2845 6.04971 15.0304 5.78854 14.6935 5.75807C14.0104 5.69627 13.6276 5.27926 13.4267 4.94039C13.1754 4.51622 12.5752 4.41461 12.1817 4.72965C10.3692 6.18123 8.28228 6.25497 6.85073 6.06154C5.76938 5.91529 4.76363 6.60536 4.58861 7.61194C4.32542 7.60128 4.06536 7.64495 3.82628 7.73981C3.82785 6.42859 3.66639 5.00194 4.811 3.36714C4.93382 3.19103 4.88097 2.95505 4.69301 2.83998C4.50509 2.72486 4.25317 2.77427 4.13035 2.95048C2.57262 5.18679 3.12997 7.19061 3.01322 8.44089C2.49484 9.41036 3.35588 10.5185 4.59371 10.4647C4.79577 12.2731 5.98482 13.3135 6.01306 13.3588L6.01312 13.3588C6.22417 13.5484 6.6032 13.9444 7.34201 14.3259V14.9809L6.32981 15.6314C2.36834 16.9206 2.7704 16.7642 2.44856 16.9484C1.84026 17.2995 1.41864 17.8364 1.24292 18.4974C1.20828 18.6281 1.26579 18.3812 0.0271421 24.2013C0.00220984 24.3188 -0.0109068 24.548 0.0114781 24.7424C0.103294 25.5416 0.708282 26 1.67132 26H12.8412C13.0658 26 13.2477 25.8295 13.2477 25.6191C13.2477 25.4087 13.0658 25.2382 12.8412 25.2382H4.52997V21.7487C4.52997 21.5383 4.34796 21.3678 4.12346 21.3678C3.89896 21.3678 3.71696 21.5383 3.71696 21.7487V25.2383H1.67121C1.03386 25.2383 0.734569 24.9821 0.826818 24.3391C1.93918 19.2466 1.94156 18.8356 2.12351 18.4184C2.15522 18.3768 2.33051 17.7891 3.18991 17.4473C3.27875 17.4132 3.22335 17.4361 3.52894 17.3488C3.5478 17.3437 3.45463 17.3734 4.91452 16.8985L5.88824 18.5826C5.99518 18.7675 6.24179 18.8364 6.4393 18.7361C6.63669 18.6359 6.71003 18.4047 6.60309 18.2198L5.69274 16.6452L6.31528 16.4426C6.61539 16.9617 9.27258 21.5572 9.56142 22.0567C9.73968 22.3661 10.1936 22.3815 10.4027 22.1113C10.4405 22.0624 10.2241 22.4264 13.6797 16.4409L14.3021 16.6434L11.0113 22.3466C10.5775 23.0984 9.42418 23.0985 8.98982 22.3474L7.50672 19.7824C7.39973 19.5974 7.15312 19.5286 6.95567 19.6289C6.75827 19.7291 6.68493 19.9602 6.79187 20.1452L8.27502 22.7103C9.01686 23.9931 10.9862 23.9919 11.7265 22.7089L15.0802 16.8967C16.5368 17.3705 16.4514 17.3434 16.4703 17.3485C16.7568 17.4303 16.725 17.4146 16.8093 17.4469C17.1202 17.571 17.3057 17.7141 17.3003 17.7104C17.619 17.9512 17.8388 18.2295 17.9562 18.6393C17.9755 18.7043 19.1822 24.3101 19.1872 24.4993C19.1993 24.9774 18.9789 25.2383 18.3291 25.2383H16.2832V21.7487C16.2832 21.5383 16.1013 21.3678 15.8767 21.3678C15.6522 21.3678 15.4702 21.5383 15.4702 21.7487V25.2383H14.738C14.5135 25.2383 14.3315 25.4088 14.3315 25.6191C14.3315 25.8295 14.5135 26 14.738 26H18.329C19.292 26 19.8969 25.5417 19.9886 24.7429C20.0108 24.5523 19.9978 24.3182 19.973 24.2014ZM15.2845 8.3734C15.7532 8.3502 16.1728 8.64605 16.1728 9.03849C16.1728 9.43483 15.7487 9.72662 15.2845 9.70362V8.3734ZM4.5626 9.70362C4.09387 9.72688 3.67425 9.43097 3.67425 9.03854C3.67425 8.64219 4.09837 8.3504 4.5626 8.3734V9.70362ZM6.73453 6.81544C8.33242 7.03151 10.6661 6.94554 12.7099 5.30866L12.7159 5.31013C13.1085 5.97257 13.728 6.39076 14.4715 6.49922V7.84792L14.0076 8.10442C13.8166 7.84655 13.4988 7.67704 13.1392 7.67704H11.279C10.8402 7.67704 10.4633 7.92897 10.3037 8.28642H9.54337C9.38375 7.92897 9.00678 7.67704 8.56803 7.67704H6.70781C6.34818 7.67704 6.0303 7.84655 5.8394 8.10442L5.37767 7.84904C5.41767 7.19797 6.04585 6.7221 6.73453 6.81544ZM13.3831 8.66728V9.42574C13.3831 9.75613 13.0962 10.0249 12.7436 10.0249H11.6745C11.3219 10.0249 11.035 9.75607 11.035 9.42574V8.66728H11.0351C11.0351 8.54342 11.1468 8.43876 11.279 8.43876H13.1392C13.2714 8.43876 13.3831 8.54342 13.3831 8.66728ZM8.81193 8.66728V9.42574C8.81193 9.75613 8.5251 10.0249 8.17247 10.0249H7.10336C6.75073 10.0249 6.4639 9.75607 6.4639 9.42574V8.66728C6.4639 8.54342 6.57561 8.43876 6.70781 8.43876H8.56803C8.70022 8.43876 8.81193 8.54342 8.81193 8.66728ZM6.47187 12.6977C5.15626 11.261 5.40986 9.86596 5.37561 8.73243L5.651 8.88472V9.42574C5.651 10.1761 6.30255 10.7866 7.10342 10.7866H8.17252C8.97339 10.7866 9.62494 10.1761 9.62494 9.42574V9.04808H10.2223V9.42574C10.2223 10.1761 10.8738 10.7866 11.6747 10.7866H12.7438C13.5447 10.7866 14.1963 10.1761 14.1963 9.42574V8.88472L14.4717 8.73243V9.9233C14.4717 12.1885 12.5581 14.1567 9.92369 14.1838C9.91822 14.1838 9.86348 14.1834 9.8689 14.1835C9.16618 14.1768 8.62618 14.0081 8.68082 14.0225C7.88315 13.8152 7.12239 13.3873 6.47187 12.6977ZM10.0001 16.9585L8.15502 15.0349V14.6655C9.00353 14.9416 9.88348 15.0051 10.7028 14.8932C10.9314 14.8621 11.1775 14.811 11.3215 14.7729C11.3557 14.7625 11.5519 14.7186 11.8452 14.6128V15.035L10.0001 16.9585ZM10.4579 18.3158L10.2783 18.6623H9.72196L9.54228 18.3158L10.0001 18.0007L10.4579 18.3158ZM8.92884 19.3637L8.66998 18.916L8.87616 18.7742L9.03025 19.0715L8.92884 19.3637ZM8.2819 18.2381L7.04683 16.0976L7.68559 15.6849L9.39795 17.4701C9.29903 17.5381 8.37903 18.1712 8.2819 18.2381ZM10 21.2162L9.4631 20.2876L9.76283 19.424H10.2376L10.5368 20.2861C10.3666 20.5808 10.2086 20.8547 10 21.2162ZM11.0705 19.3609L10.97 19.0714L11.1241 18.7741L11.3281 18.9145L11.0705 19.3609ZM11.7184 18.2381C11.6128 18.1654 10.7297 17.5577 10.6024 17.4701L12.3148 15.6849L12.9536 16.0976C12.5433 16.8084 11.9846 17.7767 11.7184 18.2381Z" fill="#182041"/>
</svg>
